<?xml version="1.0" encoding="utf-8"?>
<!-- Generator: Adobe Illustrator 26.0.1, SVG Export Plug-In . SVG Version: 6.00 Build 0)  -->
<svg version="1.1" id="Layer_1" xmlns="http://www.w3.org/2000/svg" xmlns:xlink="http://www.w3.org/1999/xlink" x="0px" y="0px"
	 viewBox="0 0 850.39 850.39" style="enable-background:new 0 0 850.39 850.39;" xml:space="preserve">
<style type="text/css">
	.st0{fill:#B9883D;}
</style>
<g>
	<path class="st0" d="M450.39,15.87c16.12,1.71,32.24,3.18,48.26,6.04c40.11,7.16,78.15,20.22,114.36,38.69
		c44.79,22.83,83.91,53.24,117.55,90.45c37.72,41.72,65.85,89.28,83.88,142.67c11.38,33.72,18.31,68.26,20.74,103.87
		c6.16,90.19-14.98,173.28-63.14,249.62c-30.45,48.27-69.69,88.19-116.78,120.18c-50.82,34.52-106.91,56.37-167.65,65.56
		c-14.21,2.15-13.23,4.61-13.24-11.25c-0.04-100.2-0.02-200.41-0.02-300.61c0-9.46,0.02-9.55,9.72-9.57
		c28.06-0.05,56.13-0.2,84.19,0.13c5.22,0.06,6.16-1.56,6.73-6.32c3.98-33.6,8.16-67.18,12.77-100.7c0.82-5.95-0.89-7.03-6.13-7.01
		c-32.79,0.13-65.59-0.09-98.38,0.2c-6.63,0.06-9.16-1.61-9.04-8.69c0.4-23.29,0.05-46.59,0.2-69.89
		c0.07-10.43,1.04-20.86,6.13-30.23c8.47-15.6,23.29-20.76,39.55-22.21c21.75-1.94,43.61-0.8,65.42-0.99
		c5.28-0.05,7.31-1.42,7.25-7.26c-0.33-29.18-0.24-58.36-0.07-87.53c0.03-5.3-1.54-7.71-7.18-8.13c-29.31-2.2-58.64-3.28-88.03-2.86
		c-36.74,0.53-69.83,10.91-97.37,36.05c-20.92,19.1-32.47,43.42-39.01,70.63c-3.84,15.96-4.58,32.19-4.99,48.37
		c-0.64,24.86-0.33,49.76-0.06,74.64c0.07,6.26-2.06,8.21-8.23,8.15c-27.37-0.26-54.74-0.11-82.11-0.1c-9.08,0-9.1,0.02-9.11,8.83
		c-0.01,32.12-0.01,64.24,0,96.36c0,9.04,0.01,9.12,9.46,9.14c27.6,0.04,55.19,0.24,82.78-0.18c6.1-0.09,7.18,1.96,7.18,7.28
		c-0.1,101.56-0.07,203.12-0.09,304.68c0,7.47-0.64,8.06-8.39,6.54c-29.33-5.75-57.74-14.54-85.18-26.36
		c-54.58-23.51-101.8-57.49-141.67-101.41c-38.11-41.98-66.37-89.94-84.72-143.73c-10.33-30.27-17.34-61.27-20.07-93.03
		C7.77,371.44,28.34,283.8,79.77,203.76c30.6-47.62,69.49-87.23,116.37-118.73c49.57-33.31,103.97-54.9,163.12-64.37
		c14.05-2.25,28.17-3.35,42.28-4.79C417.81,15.87,434.1,15.87,450.39,15.87z"/>
</g>
</svg>
