<?xml version="1.0" encoding="utf-8"?>
<!-- Generator: Adobe Illustrator 26.0.1, SVG Export Plug-In . SVG Version: 6.00 Build 0)  -->
<svg version="1.1" id="Layer_1" xmlns="http://www.w3.org/2000/svg" xmlns:xlink="http://www.w3.org/1999/xlink" x="0px" y="0px"
	 viewBox="0 0 850.39 850.39" style="enable-background:new 0 0 850.39 850.39;" xml:space="preserve">
<style type="text/css">
	.st0{fill:#B9883D;}
	.st1{opacity:0.5;fill:#B9883D;}
	.st2{fill:#E63659;}
</style>
<g>
	<path class="st0" d="M389.03,14.24c23.93,0,47.86,0,71.8,0c1.65,0.39,3.29,1.05,4.96,1.14c42.1,2.2,82.07,13.51,120.57,29.78
		c61.05,25.81,113.06,64.29,155.46,115.34c36.87,44.4,63.56,94.2,79.42,149.9c7.41,26.04,11.5,52.54,14.98,79.24
		c0,23.25,0,46.5,0,69.74c-0.47,2.68-1.14,5.33-1.39,8.03c-2.79,31.12-9.38,61.49-19.7,90.88C791,627,751.89,685.71,696.9,733.86
		c-69.55,60.9-150.73,94.17-242.36,101.11c-53.9,4.08-107.15-2.44-158.58-19.85c-70.38-23.82-130.29-63.4-179.47-119.46
		c-60.97-69.5-94.6-150.44-101.13-242.2C11.6,400.68,16.55,348.22,33.9,297.8C78.29,168.82,164.73,80.75,293.15,34.51
		C324.05,23.39,356.22,16.98,389.03,14.24z M156.06,424.78c0,37.61-0.29,75.21,0.1,112.81c0.27,26.37,6.09,51.64,19.24,74.69
		c30.61,53.64,77.79,80.76,138.8,81.83c71.77,1.26,143.58,0.29,215.37,0.32c8.21,0,16.35-0.45,24.53-1.39
		c82.3-9.49,141.49-75.11,141.73-157.77c0.21-74.18,0.2-148.37-0.06-222.55c-0.07-19.58-3.49-38.81-10.68-57.14
		C660.74,193.55,603.77,154.7,537,154.62c-73.5-0.09-147-0.06-220.5-0.01c-91.33,0.06-160.33,69.09-160.43,160.42
		C156.02,351.62,156.05,388.2,156.06,424.78z"/>
	<path class="st0" d="M426.66,194.08c36.58,0,73.16-0.12,109.74,0.03c69.04,0.29,119.72,50.99,119.87,120.08
		c0.16,73.5,0.17,147,0,220.51c-0.16,68.88-51.23,119.99-119.96,120.12c-73.16,0.14-146.32,0.12-219.48,0.01
		c-70.5-0.11-121.12-50.48-121.26-120.75c-0.15-73.16-0.16-146.32,0-219.48c0.15-70.04,50.37-120.24,120.32-120.49
		C352.81,193.97,389.73,194.08,426.66,194.08z M426.76,568.36c80.16-0.3,143.17-63.92,143.04-144.42
		c-0.13-79.67-64.52-144.19-143.9-144.2c-79.09-0.01-144.6,65.19-144.71,144.03C281.09,504.22,345.96,568.66,426.76,568.36z
		 M581.81,238.54c-16.68,0.2-30.05,13.78-29.76,30.19c0.3,16.54,14.14,29.78,30.67,29.34c16.22-0.43,29.18-13.67,29.15-29.77
		C611.83,251.59,598.44,238.34,581.81,238.54z"/>
	<path class="st0" d="M320.72,424.24c0.02-58.62,46.83-105.07,105.8-104.97c57.98,0.1,104.62,47.05,104.56,105.26
		c-0.06,58.47-47.15,105.19-105.92,105.1C367.25,529.54,320.7,482.58,320.72,424.24z"/>
</g>
<g>
	<path class="st0" d="M929.66,410.47c11.01-0.33,21,9.09,21.22,20.55c0.24,12.32-9.34,21.91-21.14,21.96
		c-11.99,0.05-21.77-9.57-21.42-21.98C908.62,419.97,917.83,410.23,929.66,410.47z M923.37,439.35c-0.1,0.41-0.38,0.49-0.59,0.63
		c-2.03,1.31-4.19,2.27-6.62,2.49c-0.22,0.02-0.5-0.02-0.55,0.28c-0.04,0.23,0.21,0.31,0.36,0.42c0.13,0.1,0.27,0.18,0.41,0.26
		c6.66,3.76,14.51,2.71,20.02-2.98c3.82-3.94,5.69-8.79,5.62-14.3c-0.01-1.15,0.23-1.96,1.25-2.62c0.88-0.56,1.6-1.37,1.94-2.59
		c-0.66,0.25-1.16,0.47-1.68,0.64c-0.85,0.29-0.85,0.29-1.57,0.09c1.08-0.54,1.73-1.42,2.15-2.48c0.09-0.23,0.28-0.51,0.02-0.72
		c-0.2-0.17-0.43,0.02-0.64,0.11c-0.69,0.3-1.37,0.61-2.05,0.92c-0.61,0.28-1.09,0.15-1.6-0.3c-2-1.75-4.76-2.08-6.92-0.88
		c-2.4,1.33-3.77,3.93-3.35,6.55c0.14,0.88-0.14,1.15-0.95,1.07c-4.74-0.47-8.71-2.38-11.66-6.2c-0.46-0.6-0.64-0.45-0.9,0.12
		c-1.15,2.53-0.36,5.91,1.81,7.65c0.26,0.21,0.6,0.35,0.73,0.76c-0.87,0.13-1.62-0.07-2.34-0.38c-0.52-0.23-0.77-0.14-0.64,0.46
		c0.37,1.73,1.07,3.28,2.48,4.44c0.86,0.71,1.85,1.17,2.93,1.66c-1.1,0.61-2.11,0.25-3.25,0.09
		C918.76,437.32,920.64,438.85,923.37,439.35z"/>
</g>
<g>
	<path class="st0" d="M927.04,592.44c1.7,0,3.4,0,5.1,0c0.15,0.04,0.3,0.09,0.46,0.11c6.46,1,11.45,4.27,15.03,9.72
		c1.77,2.7,2.72,5.71,3.22,8.88c0,1.7,0,3.4,0,5.1c-0.05,0.28-0.11,0.55-0.16,0.83c-1.21,6.67-4.73,11.74-10.56,15.19
		c-2.47,1.46-5.18,2.23-7.99,2.69c-1.7,0-3.4,0-5.1,0c-0.18-0.04-0.36-0.09-0.55-0.12c-6.44-1.05-11.43-4.32-14.99-9.79
		c-1.74-2.68-2.68-5.66-3.17-8.8c0-1.7,0-3.4,0-5.1c0.05-0.28,0.11-0.55,0.16-0.83c1.24-6.82,4.87-11.95,10.89-15.38
		C921.76,593.59,924.36,592.88,927.04,592.44z M930.88,612.12c-0.07-0.45-0.14-0.63-0.11-0.8c0.13-0.92-0.25-1.23-1.16-1.16
		c-0.88,0.07-1.76,0.03-2.64,0.01c-0.54-0.01-0.81,0.16-0.81,0.75c0.01,4.19,0.01,8.37,0,12.56c0,0.65,0.31,0.91,0.93,0.9
		c0.82-0.01,1.64,0.01,2.46,0c1.14-0.01,1.22-0.09,1.22-1.25c0.01-2.33-0.02-4.66,0.02-6.99c0.03-1.51,1.16-2.65,2.6-2.73
		c1.37-0.08,2.37,0.87,2.58,2.46c0.05,0.34,0.04,0.69,0.04,1.04c0,2.14,0.02,4.28-0.01,6.42c-0.01,0.78,0.3,1.09,1.06,1.06
		c0.88-0.03,1.76-0.02,2.64-0.01c0.62,0.01,0.93-0.26,0.92-0.9c-0.02-2.8,0.07-5.61-0.06-8.4c-0.14-3.14-2.2-5.12-5.12-5.23
		C933.59,609.77,932.13,610.47,930.88,612.12z M918.61,617.21c0,2.01,0.03,4.03-0.01,6.04c-0.02,0.88,0.32,1.19,1.16,1.15
		c0.82-0.04,1.64-0.03,2.45-0.01c0.71,0.02,1.02-0.27,1.02-1.01c-0.02-4.12-0.01-8.24,0-12.36c0-0.71-0.32-0.95-0.98-0.93
		c-0.85,0.03-1.7,0.04-2.55,0c-0.8-0.04-1.13,0.24-1.11,1.08C918.64,613.18,918.61,615.2,918.61,617.21z M921.08,603.22
		c-1.61-0.04-2.64,0.84-2.67,2.27c-0.03,1.44,0.9,2.39,2.4,2.44c1.61,0.05,2.76-0.91,2.76-2.31
		C923.57,604.24,922.55,603.25,921.08,603.22z"/>
</g>
<g>
	<path class="st0" d="M1012.93,588.58c0.84,0.09,1.67,0.17,2.51,0.31c2.08,0.37,4.06,1.05,5.94,2.01c2.33,1.19,4.36,2.77,6.11,4.7
		c1.96,2.17,3.42,4.64,4.36,7.41c0.59,1.75,0.95,3.55,1.08,5.39c0.32,4.68-0.78,9-3.28,12.96c-1.58,2.51-3.62,4.58-6.07,6.24
		c-2.64,1.79-5.55,2.93-8.71,3.41c-0.74,0.11-0.69,0.24-0.69-0.58c0-5.2,0-10.41,0-15.61c0-0.49,0-0.5,0.5-0.5
		c1.46,0,2.92-0.01,4.37,0.01c0.27,0,0.32-0.08,0.35-0.33c0.21-1.75,0.42-3.49,0.66-5.23c0.04-0.31-0.05-0.37-0.32-0.36
		c-1.7,0.01-3.41,0-5.11,0.01c-0.34,0-0.48-0.08-0.47-0.45c0.02-1.21,0-2.42,0.01-3.63c0-0.54,0.05-1.08,0.32-1.57
		c0.44-0.81,1.21-1.08,2.05-1.15c1.13-0.1,2.26-0.04,3.4-0.05c0.27,0,0.38-0.07,0.38-0.38c-0.02-1.52-0.01-3.03,0-4.55
		c0-0.28-0.08-0.4-0.37-0.42c-1.52-0.11-3.05-0.17-4.57-0.15c-1.91,0.03-3.63,0.57-5.06,1.87c-1.09,0.99-1.69,2.26-2.03,3.67
		c-0.2,0.83-0.24,1.67-0.26,2.51c-0.03,1.29-0.02,2.58,0,3.88c0,0.33-0.11,0.43-0.43,0.42c-1.42-0.01-2.84-0.01-4.26-0.01
		c-0.47,0-0.47,0-0.47,0.46c0,1.67,0,3.34,0,5c0,0.47,0,0.47,0.49,0.47c1.43,0,2.87,0.01,4.3-0.01c0.32,0,0.37,0.1,0.37,0.38
		c-0.01,5.27,0,10.55,0,15.82c0,0.39-0.03,0.42-0.44,0.34c-1.52-0.3-3-0.76-4.42-1.37c-2.83-1.22-5.29-2.99-7.36-5.27
		c-1.98-2.18-3.45-4.67-4.4-7.47c-0.54-1.57-0.9-3.18-1.04-4.83c-0.42-4.91,0.65-9.46,3.32-13.61c1.59-2.47,3.61-4.53,6.04-6.17
		c2.57-1.73,5.4-2.85,8.47-3.34c0.73-0.12,1.46-0.17,2.2-0.25C1011.23,588.58,1012.08,588.58,1012.93,588.58z"/>
</g>
<g>
	<path class="st0" d="M947.05,549.49c-13.97,0.03-23.14-9.5-23.45-20.58c-0.35-12.48,9.62-21.95,21.11-21.94
		c5.98,0.01,11.15,2.16,15.37,6.44c3.36,3.41,5.31,7.54,5.88,12.26c0.83,6.89-1.34,12.8-6.22,17.67
		C955.65,547.44,950.62,549.43,947.05,549.49z M934.2,542.19c0.03,0.03,0.05,0.06,0.08,0.08c1.29,1.42,2.92,2.32,4.75,2.78
		c2.73,0.69,5.36,0.39,7.81-1.05c3.26-1.93,5.09-4.81,5.21-8.59c0.13-3.81,0.03-7.63,0.04-11.45c0-0.15-0.07-0.31,0.09-0.45
		c0.57,0.35,1.1,0.76,1.72,1.04c1.82,0.83,3.69,1.39,5.71,1.39c0.31,0,0.36-0.09,0.36-0.36c-0.01-1.64-0.01-3.28,0-4.93
		c0-0.32-0.11-0.4-0.41-0.39c-0.41,0.02-0.81-0.05-1.21-0.15c-0.09-0.26-0.05-0.53-0.03-0.79c0.02-0.35-0.07-0.47-0.45-0.5
		c-1.53-0.11-2.98-0.48-4.14-1.57c-0.94-1.38-1.57-2.87-1.64-4.56c-0.01-0.24-0.13-0.32-0.36-0.32c-0.37,0.01-0.75,0.01-1.12,0.01
		c-0.16-0.33-0.18-0.69-0.16-1.05c0.02-0.32-0.11-0.39-0.41-0.38c-1.56,0.01-3.13,0.03-4.69-0.01c-0.5-0.01-0.58,0.14-0.58,0.6
		c0.01,7.29-0.01,14.58,0,21.88c0,2.15-1.37,4.01-3.29,4.61c-1.36,0.42-2.68,0.38-3.87-0.52c-0.07-0.17-0.13-0.35-0.21-0.51
		c-0.72-1.53-0.74-3.08,0.18-4.5c1.19-1.85,2.92-2.63,5.12-2.21c0.26,0.05,0.38-0.02,0.38-0.3c0-1.7,0-3.41,0-5.11
		c0-0.17-0.03-0.32-0.24-0.32c-0.45,0-0.89-0.16-1.35-0.04c-0.13-0.3-0.06-0.62-0.05-0.92c0.02-0.34-0.11-0.48-0.44-0.5
		c-1.11-0.06-2.22-0.05-3.31,0.22c-2.94,0.74-5.23,2.39-6.73,5.04c-1.42,2.51-1.72,5.18-0.96,7.95
		C930.67,538.81,932.15,540.71,934.2,542.19L934.2,542.19z"/>
	<path class="st1" d="M934.28,542.28c1.4,0.82,2.88,1.39,4.5,1.61c4.35,0.58,8.33-1.45,10.4-5.32c0.95-1.77,1.42-3.63,1.4-5.64
		c-0.04-3.45-0.02-6.91-0.03-10.37c0-0.12,0-0.24,0-0.38c0.23-0.03,0.38,0.15,0.56,0.26c2.05,1.3,4.28,1.97,6.7,2.09
		c0.45,0.02,0.55-0.13,0.55-0.55c-0.02-1.28,0-2.56,0.01-3.84c0.4,0.1,0.8,0.17,1.21,0.15c0.29-0.02,0.41,0.07,0.41,0.39
		c-0.01,1.64-0.01,3.28,0,4.93c0,0.27-0.05,0.36-0.36,0.36c-2.02-0.01-3.89-0.57-5.71-1.39c-0.62-0.28-1.14-0.69-1.72-1.04
		c-0.15,0.14-0.09,0.3-0.09,0.45c-0.01,3.82,0.09,7.63-0.04,11.45c-0.12,3.78-1.95,6.66-5.21,8.59c-2.44,1.45-5.08,1.74-7.81,1.05
		C937.2,544.6,935.57,543.7,934.28,542.28z"/>
	<path class="st1" d="M937.61,537.55c-1.44-0.83-2.26-2.08-2.34-3.74c-0.12-2.49,1.43-4.38,3.94-4.89c0.62-0.13,1.24-0.18,1.86-0.03
		c0.3,0.07,0.38-0.02,0.38-0.32c-0.01-1.27,0-2.53,0-3.8c0-0.08,0.02-0.15,0.03-0.23c0.45-0.12,0.9,0.03,1.35,0.04
		c0.22,0,0.24,0.15,0.24,0.32c0,1.7,0,3.41,0,5.11c0,0.28-0.12,0.35-0.38,0.3c-2.2-0.42-3.93,0.36-5.12,2.21
		c-0.91,1.43-0.9,2.97-0.18,4.5C937.48,537.2,937.54,537.38,937.61,537.55z"/>
	<path class="st1" d="M953.73,517.28c-0.51-0.16-0.84-0.58-1.18-0.95c-1.02-1.12-1.65-2.44-1.94-3.92c0.37,0,0.75,0,1.12-0.01
		c0.22-0.01,0.34,0.07,0.36,0.32C952.16,514.41,952.78,515.9,953.73,517.28z"/>
	<path class="st2" d="M934.19,542.2L934.19,542.2L934.19,542.2z"/>
</g>
</svg>
