<?xml version="1.0" encoding="utf-8"?>
<!-- Generator: Adobe Illustrator 26.0.1, SVG Export Plug-In . SVG Version: 6.00 Build 0)  -->
<svg version="1.1" id="Layer_1" xmlns="http://www.w3.org/2000/svg" xmlns:xlink="http://www.w3.org/1999/xlink" x="0px" y="0px"
	 viewBox="0 0 850.39 850.39" style="enable-background:new 0 0 850.39 850.39;" xml:space="preserve">
<style type="text/css">
	.st0{fill:#063F21;}
</style>
<g>
	<g>
		<path class="st0" d="M239.68,829.85c-2.97,1.06-6.23,0.12-9.48-1.79c-33.06-19.44-66.1-38.9-99.28-58.15
			c-4.15-2.4-4.58-4.82-3.53-9.21c16.2-67.64,29.96-135.79,42.15-204.27c7.77-43.66,14.68-87.45,20.79-131.36
			c4.39-31.55,8.19-63.18,11.37-94.88c3.36-33.48,6.29-66.98,7.99-100.59c0.19-3.68,1.84-5.55,5.2-6.77
			c27.04-9.81,54.07-19.64,81.02-29.68c7.66-2.85,15.06-0.49,22.44,0.44c19.89,2.5,39.72,5.53,59.56,8.45
			c4.84,0.71,5.78-1.04,4.83-5.59c-5.36-25.75-10.83-51.48-15.61-77.34c-3.73-20.15-6.84-40.41-3.64-61.09
			c4.51-29.12,23.96-42.5,52.67-35.52c27.04,6.58,47.52,22.88,64.13,44.49c22.67,29.51,35.72,63.57,46.03,98.87
			c4.95,16.92,8.83,34.1,11.93,51.44c0.91,5.11,2.92,7.53,8.47,8.19c18.58,2.22,37.06,5.23,55.62,7.57c4.82,0.61,6.93,2.69,7.9,7.28
			c13.4,63,26.92,125.97,40.4,188.95c14.51,67.78,29,135.56,43.52,203.34c9.57,44.68,19.13,89.36,28.82,134.01
			c0.95,4.39,1.07,6.52-4.7,7.13c-34.11,3.62-68.17,7.69-102.24,11.74c-27.87,3.31-55.7,6.9-83.57,10.19
			c-35.85,4.23-71.72,8.22-107.57,12.42c-40.48,4.75-80.95,9.66-121.43,14.43C282.46,825.05,261.43,827.38,239.68,829.85z
			 M309.54,354.74c-0.12,64.38-2.54,119.14-6.68,173.86c-2.99,39.57-7.21,79-12.6,118.29c-6.51,47.49-15.08,94.64-25.81,141.37
			c-1.15,5.03-0.02,6.48,5,5.88c28.09-3.4,56.19-6.66,84.29-9.98c35.85-4.24,71.69-8.54,107.54-12.75
			c32.53-3.82,65.07-7.55,97.59-11.36c39.83-4.67,79.64-9.5,119.49-13.97c5.34-0.6,6.86-1.97,5.66-7.46
			c-6.86-31.35-13.34-62.79-20.06-94.18c-16.63-77.59-33.35-155.17-49.99-232.76c-10.04-46.86-20-93.75-29.94-140.63
			c-0.98-4.63-2.23-8.49-8-9.06c-8.42-0.83-16.84-1.9-25.19-3.32c-4.79-0.81-5.85,0.61-5.28,5.23c2.17,17.69,4.2,35.41,4.87,53.24
			c0.12,3.16,1.26,5.47,3.6,7.52c6.36,5.56,9.75,12.78,10.43,21.06c1.01,12.28-3.41,22.53-13.6,29.48
			c-9.04,6.16-18.9,6.16-28.54,0.93c-16.34-8.88-20.5-31.66-8.77-47.11c2.22-2.92,5.6-5.2,5.2-9.69
			c-1.85-20.64-3.42-41.3-6.41-61.82c-0.47-3.2-1.58-4.57-4.88-5.01c-26.06-3.49-52.12-7.01-78.13-10.89
			c-5.59-0.83-6.58,0.97-6.04,5.92c2.42,22.16,3.91,44.39,3.83,66.7c-0.01,3.12-0.11,6.19,2.06,8.89
			c5.49,6.84,6.94,14.86,6.13,23.34c-1.06,11.01-6.36,19.38-16.35,24.39c-9.66,4.85-19.07,3.77-27.89-2.15
			c-16.2-10.88-17.67-36.12-2.54-49.49c4.51-3.98,6.06-7.98,6.04-13.79c-0.07-20.99-1.87-41.84-4.05-62.69
			c-0.47-4.55-2.44-6.91-6.87-7.53c-24.28-3.4-48.56-6.77-72.81-10.31c-4.31-0.63-5.59,1.1-5.65,5.04
			c-0.1,6.71,1.12,13.33,1.37,19.99C307.93,288.03,310.14,326.1,309.54,354.74z M166.66,735.16c3.17,0.51,5.36-0.85,7.6-1.6
			c21.13-7.11,42.1-14.74,63.41-21.28c8.02-2.46,11.01-6.55,12.3-14.62c7.2-45.12,13.37-90.35,17.8-135.85
			c3.37-34.61,5.59-69.29,7.43-103.99c1.95-36.76,1.61-73.58,1.75-110.39c0.13-35.7-1.46-71.33-3.02-106.97
			c-0.19-4.23-1.41-5.67-5.68-4.12c-6.92,2.51-13.88,4.93-20.95,6.95c-4.6,1.32-6.2,3.87-6.51,8.59
			c-2.28,34.69-5.28,69.33-9.31,103.85c-5.56,47.58-11.92,95.05-19.55,142.36c-10.08,62.51-21.37,124.78-34.54,186.71
			C173.82,701.51,170.26,718.23,166.66,735.16z M394.58,76.53c0.46,6.3,0.62,12.11,1.36,17.83c4.5,35.17,13.54,69.47,19.84,104.28
			c1.23,6.81,3.96,9.31,10.37,10.14c24.5,3.16,48.96,6.54,73.4,10.13c5.21,0.77,6.28-0.43,5.21-5.52
			c-6.34-30.15-14.35-59.76-27.06-87.93c-9.52-21.1-21.2-40.73-39.11-55.96c-9.29-7.91-19.75-13.75-31.81-16.19
			c-7.04-1.42-9.86,0.32-10.98,7.08C394.9,65.87,394.93,71.48,394.58,76.53z M184.92,764.01c15.12,8.9,28.55,16.73,41.89,24.7
			c2.88,1.72,4.34,1.38,5.06-2.03c2.61-12.4,5.31-24.79,8.01-37.17c0.75-3.46-0.82-3.97-3.63-3.01
			C219.68,752.15,203.12,757.8,184.92,764.01z"/>
		<path class="st0" d="M306.06,71.49c0.47-10.76,1.27-24.57,9.17-36.7c9.04-13.88,32.3-19.09,46.18-10.55
			c2.48,1.52,2.15,2.86,0.82,4.83c-4.43,6.52-7.47,13.65-9.27,21.33c-0.55,2.35-1.56,3.72-4.65,3.37c-6.88-0.78-8.85,0.94-9.28,8.34
			c-0.81,13.82-0.26,27.61,1.59,41.34c3.46,25.6,8.36,50.96,13,76.36c0.93,5.11,0.75,7.59-5.63,6.22
			c-7.16-1.54-14.52-2.16-21.81-3.03c-3.01-0.36-4.65-1.48-5.5-4.67C315.74,159.74,306.14,92.67,306.06,71.49z"/>
	</g>
</g>
</svg>
