<?xml version="1.0" encoding="utf-8"?>
<!-- Generator: Adobe Illustrator 26.0.1, SVG Export Plug-In . SVG Version: 6.00 Build 0)  -->
<svg version="1.1" id="Layer_1" xmlns="http://www.w3.org/2000/svg" xmlns:xlink="http://www.w3.org/1999/xlink" x="0px" y="0px"
	 viewBox="0 0 850.39 850.39" style="enable-background:new 0 0 850.39 850.39;" xml:space="preserve">
<style type="text/css">
	.st0{fill:#063F21;}
</style>
<g>
	<g>
		<path class="st0" d="M90.12,325.74c0.4-51.76,9.96-101.48,33.53-147.94c19.5-38.43,46.77-70.5,80.76-96.89
			c44.04-34.19,93.99-55.19,148.35-66.33c27.58-5.65,55.45-8.34,83.56-7.36c33.19,1.16,65.75,6.68,97.53,16.43
			c37.96,11.64,73.41,28.5,105.42,52.14c26.17,19.33,48.89,42.12,67.55,68.89c27.6,39.6,43.29,83.67,49.84,131.26
			c2.85,20.65,4.24,41.39,3.4,62.19c-1.53,37.95-8.31,75.04-19.08,111.44c-13.46,45.5-32.04,88.83-54.28,130.7
			c-27.69,52.13-60.7,100.63-98.68,145.73c-27.27,32.39-56.88,62.45-91.49,87.16c-15.69,11.2-32.18,20.94-50.71,26.93
			c-16.38,5.29-32.31,3.96-48.03-2.28c-25.37-10.08-47.15-25.85-67.79-43.34c-46.43-39.33-84.56-86-118.81-135.91
			c-39.06-56.9-70.87-117.65-93.51-182.98c-12.47-35.97-21.55-72.78-25.47-110.71C90.87,351.89,89.86,338.83,90.12,325.74z
			 M456.19,634.99c24.91-0.89,50.78-3.89,76.22-10.48c32.2-8.34,62.36-21.18,89.4-40.59c48.72-34.96,79.96-82.16,96.41-139.55
			c8.57-29.88,11.79-60.47,13.08-91.38c0.17-4.03-1.26-5.17-5.11-5.1c-13.4,0.25-26.73,1.23-40.01,2.94
			c-30.69,3.97-60.15,12.31-88.09,25.61c-45.03,21.43-81.3,52.91-108.24,95.07c-15.4,24.11-26.67,49.98-34.07,77.54
			c-6.6,24.57-9.96,49.61-10.87,75.07C444.47,636.87,443.48,635.06,456.19,634.99z M395.47,635.08c1.42,0,2.84-0.01,4.25,0
			c6.24,0.03,6.5-0.26,6.09-6.29c-0.54-7.85-0.97-15.71-1.58-23.55c-2.87-37.1-11.79-72.6-27.78-106.3
			c-20.19-42.54-49.54-77.19-88.55-103.6C240.09,363,186.77,349.01,129.58,347.9c-4.19-0.08-5.1,1.66-4.81,5.36
			c0.65,8.47,1,16.97,1.6,25.45c2.77,39.34,11.73,77.14,28.9,112.76c23.7,49.16,59.7,86.65,108.18,111.71
			C304.78,624.54,349.22,633.68,395.47,635.08z"/>
	</g>
</g>
</svg>
