<?xml version="1.0" encoding="utf-8"?>
<!-- Generator: Adobe Illustrator 26.0.1, SVG Export Plug-In . SVG Version: 6.00 Build 0)  -->
<svg version="1.1" id="Layer_1" xmlns="http://www.w3.org/2000/svg" xmlns:xlink="http://www.w3.org/1999/xlink" x="0px" y="0px"
	 viewBox="0 0 850.39 661.79" style="enable-background:new 0 0 850.39 661.79;" xml:space="preserve">
<style type="text/css">
	.st0{fill:#B9883D;}
</style>
<g>
	<path class="st0" d="M424.09,21.78c105.65,0,211.3-0.07,316.96,0.09c12.29,0.02,24.64,0.07,36.64,4.01
		c30.46,10.01,51.86,38.58,51.88,70.8c0.09,154.54,0.1,309.09-0.07,463.63c-0.05,41.63-29.25,72.42-70.5,75.43
		c-30.19,2.2-60.41,0.89-90.61,0.93c-162.16,0.23-324.32,0.11-486.48,0.11c-26.02,0-52.04,0.16-78.06-0.06
		c-13.72-0.12-27.43-1.5-39.9-7.77c-27.18-13.67-42.39-35.85-42.8-66.37c-0.68-50.72-0.26-101.45-0.26-152.17
		c-0.01-103.03-0.02-206.06,0-309.09c0.01-38.37,19.3-64.98,55.76-76.61c9.62-3.07,19.74-2.85,29.69-2.86
		C212.26,21.74,318.17,21.78,424.09,21.78z M424.9,585.82c108.55,0,217.09,0.01,325.64-0.01c20.17,0,29.12-9.28,29.11-29.53
		c-0.04-74.38,0.02-148.76,0.01-223.14c-0.01-77.53-0.02-155.07-0.1-232.6c-0.02-18.67-9.46-27.91-28.3-27.96
		c-19.45-0.06-38.9-0.05-58.35-0.05c-136.93-0.01-273.87-0.03-410.8-0.03c-61.76,0-123.53,0.03-185.29,0.11
		c-12.34,0.02-20.12,5.52-24.25,16.41c-1.94,5.1-1.64,10.34-1.64,15.57c-0.02,150.34-0.01,300.67-0.06,451.01
		c-0.01,21.43,8.54,30.22,29.96,30.22C208.86,585.83,316.88,585.82,424.9,585.82z"/>
	<path class="st0" d="M683.67,198.81c-24.86,16.04-48.02,30.92-71.12,45.9c-47.61,30.87-95.27,61.67-142.72,92.79
		c-10.38,6.81-20.57,13.47-33.02,15.93c-16.06,3.17-30.98,0.15-44.51-8.59c-53.41-34.49-106.66-69.24-159.98-103.88
		c-18.95-12.31-37.91-24.6-56.93-36.81c-2.09-1.34-4.31-4.04-6.97-2.47c-2.59,1.53-1.45,4.82-1.45,7.32
		c-0.07,73.58-0.06,147.17-0.08,220.75c-0.01,38.11-0.14,76.21,0.05,114.32c0.03,6.9-1.85,10.12-9.37,9.73
		c-9.96-0.52-19.97-0.06-29.95-0.11c-11.46-0.06-11.5-0.1-11.53-11.31c-0.07-29.7-0.13-59.39-0.14-89.09
		c-0.02-110.11-0.03-220.23,0.07-330.34c0-4.79-2.34-11.52,2.42-13.83c3.93-1.9,8.23,3.49,12.13,6.01
		c61.07,39.58,122.11,79.22,183.15,118.86c32.8,21.3,65.76,42.36,98.27,64.08c9.1,6.08,16.38,6.59,25.76,0.46
		c76.75-50.17,153.77-99.94,230.69-149.86c18.94-12.3,37.79-24.74,56.78-36.97c2.25-1.45,4.52-4.76,7.52-2.93
		c2.74,1.67,1.77,5.28,1.77,8.07c0.07,48.88,0.08,97.76,0.07,146.64c-0.03,91.72-0.09,183.43-0.14,275.15
		c0,2.37-0.13,4.74-0.01,7.09c0.29,5.52-1.82,8.16-7.78,8.01c-11.82-0.3-23.65-0.24-35.48-0.03c-5.41,0.1-7.59-2.11-7.53-7.45
		c0.12-10.51-0.09-21.02-0.09-31.54c0.03-98.55,0.07-197.1,0.11-295.65C683.67,213.07,683.67,207.06,683.67,198.81z"/>
</g>
</svg>
